<svg t="1696693516637" class="icon" viewBox="0 0 1024 1024" version="1.1" xmlns="http://www.w3.org/2000/svg" p-id="4329" width="20" height="20"><path d="M21.333333 0v1024" fill="#515151" p-id="4330"></path><path d="M42.666667 0v1024" fill="#515151" p-id="4331"></path><path d="M64 0v1024" fill="#515151" p-id="4332"></path><path d="M85.333333 0v1024" fill="#515151" p-id="4333"></path><path d="M106.666667 0v1024" fill="#515151" p-id="4334"></path><path d="M128 0v1024" fill="#515151" p-id="4335"></path><path d="M149.333333 0v1024" fill="#515151" p-id="4336"></path><path d="M170.666667 0v1024" fill="#515151" p-id="4337"></path><path d="M192 0v1024" fill="#515151" p-id="4338"></path><path d="M213.333333 0v1024" fill="#515151" p-id="4339"></path><path d="M234.666667 0v1024" fill="#515151" p-id="4340"></path><path d="M256 0v1024" fill="#515151" p-id="4341"></path><path d="M277.333333 0v1024" fill="#515151" p-id="4342"></path><path d="M298.666667 0v1024" fill="#515151" p-id="4343"></path><path d="M320 0v1024" fill="#515151" p-id="4344"></path><path d="M341.333333 0v1024" fill="#515151" p-id="4345"></path><path d="M362.666667 0v1024" fill="#515151" p-id="4346"></path><path d="M384 0v1024" fill="#515151" p-id="4347"></path><path d="M405.333333 0v1024" fill="#515151" p-id="4348"></path><path d="M426.666667 0v1024" fill="#515151" p-id="4349"></path><path d="M448 0v1024" fill="#515151" p-id="4350"></path><path d="M469.333333 0v1024" fill="#515151" p-id="4351"></path><path d="M490.666667 0v1024" fill="#515151" p-id="4352"></path><path d="M512 0v1024" fill="#515151" p-id="4353"></path><path d="M533.333333 0v1024" fill="#515151" p-id="4354"></path><path d="M554.666667 0v1024" fill="#515151" p-id="4355"></path><path d="M576 0v1024" fill="#515151" p-id="4356"></path><path d="M597.333333 0v1024" fill="#515151" p-id="4357"></path><path d="M618.666667 0v1024" fill="#515151" p-id="4358"></path><path d="M640 0v1024" fill="#515151" p-id="4359"></path><path d="M661.333333 0v1024" fill="#515151" p-id="4360"></path><path d="M682.666667 0v1024" fill="#515151" p-id="4361"></path><path d="M704 0v1024" fill="#515151" p-id="4362"></path><path d="M725.333333 0v1024" fill="#515151" p-id="4363"></path><path d="M746.666667 0v1024" fill="#515151" p-id="4364"></path><path d="M768 0v1024" fill="#515151" p-id="4365"></path><path d="M789.333333 0v1024" fill="#515151" p-id="4366"></path><path d="M810.666667 0v1024" fill="#515151" p-id="4367"></path><path d="M832 0v1024" fill="#515151" p-id="4368"></path><path d="M853.333333 0v1024" fill="#515151" p-id="4369"></path><path d="M874.666667 0v1024" fill="#515151" p-id="4370"></path><path d="M896 0v1024" fill="#515151" p-id="4371"></path><path d="M917.333333 0v1024" fill="#515151" p-id="4372"></path><path d="M938.666667 0v1024" fill="#515151" p-id="4373"></path><path d="M960 0v1024" fill="#515151" p-id="4374"></path><path d="M981.333333 0v1024" fill="#515151" p-id="4375"></path><path d="M1002.666667 0v1024M0 21.333333h1024" fill="#515151" p-id="4376"></path><path d="M0 42.666667h1024" fill="#515151" p-id="4377"></path><path d="M0 64h1024" fill="#515151" p-id="4378"></path><path d="M0 85.333333h1024" fill="#515151" p-id="4379"></path><path d="M0 106.666667h1024" fill="#515151" p-id="4380"></path><path d="M0 128h1024" fill="#515151" p-id="4381"></path><path d="M0 149.333333h1024" fill="#515151" p-id="4382"></path><path d="M0 170.666667h1024" fill="#515151" p-id="4383"></path><path d="M0 192h1024" fill="#515151" p-id="4384"></path><path d="M0 213.333333h1024" fill="#515151" p-id="4385"></path><path d="M0 234.666667h1024" fill="#515151" p-id="4386"></path><path d="M0 256h1024" fill="#515151" p-id="4387"></path><path d="M0 277.333333h1024" fill="#515151" p-id="4388"></path><path d="M0 298.666667h1024" fill="#515151" p-id="4389"></path><path d="M0 320h1024" fill="#515151" p-id="4390"></path><path d="M0 341.333333h1024" fill="#515151" p-id="4391"></path><path d="M0 362.666667h1024" fill="#515151" p-id="4392"></path><path d="M0 384h1024" fill="#515151" p-id="4393"></path><path d="M0 405.333333h1024" fill="#515151" p-id="4394"></path><path d="M0 426.666667h1024" fill="#515151" p-id="4395"></path><path d="M0 448h1024" fill="#515151" p-id="4396"></path><path d="M0 469.333333h1024" fill="#515151" p-id="4397"></path><path d="M0 490.666667h1024" fill="#515151" p-id="4398"></path><path d="M0 512h1024" fill="#515151" p-id="4399"></path><path d="M0 533.333333h1024" fill="#515151" p-id="4400"></path><path d="M0 554.666667h1024" fill="#515151" p-id="4401"></path><path d="M0 576h1024" fill="#515151" p-id="4402"></path><path d="M0 597.333333h1024" fill="#515151" p-id="4403"></path><path d="M0 618.666667h1024" fill="#515151" p-id="4404"></path><path d="M0 640h1024" fill="#515151" p-id="4405"></path><path d="M0 661.333333h1024" fill="#515151" p-id="4406"></path><path d="M0 682.666667h1024" fill="#515151" p-id="4407"></path><path d="M0 704h1024" fill="#515151" p-id="4408"></path><path d="M0 725.333333h1024" fill="#515151" p-id="4409"></path><path d="M0 746.666667h1024" fill="#515151" p-id="4410"></path><path d="M0 768h1024" fill="#515151" p-id="4411"></path><path d="M0 789.333333h1024" fill="#515151" p-id="4412"></path><path d="M0 810.666667h1024" fill="#515151" p-id="4413"></path><path d="M0 832h1024" fill="#515151" p-id="4414"></path><path d="M0 853.333333h1024" fill="#515151" p-id="4415"></path><path d="M0 874.666667h1024" fill="#515151" p-id="4416"></path><path d="M0 896h1024" fill="#515151" p-id="4417"></path><path d="M0 917.333333h1024" fill="#515151" p-id="4418"></path><path d="M0 938.666667h1024" fill="#515151" p-id="4419"></path><path d="M0 960h1024" fill="#515151" p-id="4420"></path><path d="M0 981.333333h1024" fill="#515151" p-id="4421"></path><path d="M0 1002.666667h1024" fill="#515151" p-id="4422"></path><path d="M810 274L572 512l238 238-60 60L512 572 274 810l-60-60L452 512 214 274l60-60L512 452l238-238z" fill="#515151" p-id="4423"></path></svg>